HIERARCHY
ROOT Elbow
{
	OFFSET	0.00	0.00	0.00
	CHANNELS 6 Xposition Yposition Zposition Zrotation Xrotation Yrotation
	JOINT L_Wrist
	{
		OFFSET	 0.208349	 0.000000	 0.000000
		CHANNELS 3 Zrotation Xrotation Yrotation
		JOINT L_index_Proximal
		{
			OFFSET	 0.093499	 0.010637	-0.002084
			CHANNELS 3 Zrotation Xrotation Yrotation
			JOINT L_index_b
			{
				OFFSET	 0.033152	 0.000000	 0.000000
				CHANNELS 3 Zrotation Xrotation Yrotation
				JOINT L_index_c
				{
					OFFSET	 0.018651	 0.000000	 0.000000
					CHANNELS 3 Zrotation Xrotation Yrotation
					End Site
					{
						OFFSET	 0.018651	 0.000000	 0.000000
					}
				}
			}
		}
		JOINT L_middle_Proximal
		{
			OFFSET	 0.090632	-0.006115	-0.003750
			CHANNELS 3 Zrotation Xrotation Yrotation
			JOINT L_middle_b
			{
				OFFSET	 0.037194	 0.000000	 0.000000
				CHANNELS 3 Zrotation Xrotation Yrotation
				JOINT L_middle_c
				{
					OFFSET	 0.021943	 0.000000	 0.000000
					CHANNELS 3 Zrotation Xrotation Yrotation
					End Site
					{
						OFFSET	 0.021943	 0.000000	 0.000000
					}
				}
			}
		}
		JOINT L_pinky_Proximal
		{
			OFFSET	 0.074015	-0.035449	-0.000417
			CHANNELS 3 Zrotation Xrotation Yrotation
			JOINT L_pinky_b
			{
				OFFSET	 0.027285	 0.000000	 0.000000
				CHANNELS 3 Zrotation Xrotation Yrotation
				JOINT L_pinky_c
				{
					OFFSET	 0.015093	 0.000000	 0.000000
					CHANNELS 3 Zrotation Xrotation Yrotation
					End Site
					{
						OFFSET	 0.015093	 0.000000	 0.000000
					}
				}
			}
		}
		JOINT L_ring_Proximal
		{
			OFFSET	 0.082801	-0.021859	-0.003750
			CHANNELS 3 Zrotation Xrotation Yrotation
			JOINT L_ring_b
			{
				OFFSET	 0.034478	 0.000000	 0.000000
				CHANNELS 3 Zrotation Xrotation Yrotation
				JOINT L_ring_c
				{
					OFFSET	 0.021377	 0.000000	 0.000000
					CHANNELS 3 Zrotation Xrotation Yrotation
					End Site
					{
						OFFSET	 0.021377	 0.000000	 0.000000
					}
				}
			}
		}
		JOINT L_thumb_Proximal
		{
			OFFSET	 0.030306	 0.018528	 0.004584
			CHANNELS 3 Zrotation Xrotation Yrotation
			JOINT L_thumb_a
			{
				OFFSET	 0.038520	 0.000000	 0.000000
				CHANNELS 3 Zrotation Xrotation Yrotation
				JOINT L_thumb_b
				{
					OFFSET	 0.026310	 0.000000	 0.000000
					CHANNELS 3 Zrotation Xrotation Yrotation
					End Site
					{
						OFFSET	 0.026310	 0.000000	 0.000000
					}
				}
			}
		}
	}
}
MOTION
Frames:    8
Frame Time: 0.01666667
-0.362677	 0.232135	 0.674413	-89.518090	 78.089430	-33.783500	 3.958632	 1.918779	 10.952600	-0.023237	-0.247448	-68.505980	 0.539175	-0.487946	-84.287790	 7.767432	-2.854945	-40.313130	-11.587450	-6.810263	-73.481490	 4.597921	-4.585025	-89.838910	 6.248586	-2.462758	-42.989010	-37.942580	-10.849660	-74.908950	-5.710626	 5.167852	-84.278800	-3.192055	 1.242306	-42.522510	-22.643070	-7.829360	-78.334750	 4.104350	-4.234214	-91.786060	 3.256591	-1.134556	-38.407210	 61.084680	 60.288830	-15.915580	-2.377557	-0.010176	 0.489868	-2.048164	 0.211248	-11.775990
-0.362538	 0.232448	 0.674503	-89.653330	 78.089520	-33.556790	 4.024082	 1.904650	 10.870920	 0.043589	-0.301341	-68.628520	 0.605897	-0.550153	-84.477370	 7.860121	-2.898017	-40.427370	-11.578140	-6.816715	-73.535250	 4.615809	-4.607509	-89.896680	 6.319361	-2.494166	-43.043470	-37.945590	-10.835280	-74.982890	-5.696094	 5.152272	-84.252050	-3.146879	 1.225925	-42.560060	-22.634180	-7.835100	-78.376870	 4.097356	-4.229288	-91.817130	 3.298163	-1.148463	-38.389110	 61.283820	 60.286740	-15.848620	-2.397704	-0.013018	 0.622731	-2.123458	 0.215968	-11.614060
-0.362543	 0.232535	 0.674568	-89.638220	 78.096040	-33.547080	 4.054177	 1.899917	 10.843530	 0.072036	-0.324491	-68.710100	 0.674996	-0.613988	-84.580210	 7.956173	-2.942085	-40.535510	-11.577730	-6.815958	-73.571070	 4.637662	-4.631779	-89.927080	 6.365914	-2.513477	-43.057480	-37.950990	-10.825810	-75.012770	-5.682030	 5.138578	-84.241070	-3.111969	 1.212803	-42.575800	-22.630740	-7.836716	-78.402280	 4.117888	-4.251362	-91.829030	 3.338406	-1.162271	-38.382260	 61.435270	 60.281060	-15.817410	-2.378793	-0.014174	 0.682355	-2.127902	 0.215141	-11.544710
-0.362589	 0.232498	 0.674713	-89.466040	 78.083180	-33.684780	 4.148757	 1.889988	 10.786230	 0.066844	-0.320188	-68.686020	 0.703103	-0.642954	-84.882820	 8.036146	-2.965930	-40.462790	-11.597760	-6.798723	-73.566640	 4.657910	-4.659489	-90.019390	 6.438643	-2.539764	-43.019500	-37.993250	-10.783860	-75.047820	-5.656545	 5.114348	-84.227940	-3.095536	 1.206656	-42.584030	-22.641880	-7.825652	-78.410540	 4.133942	-4.272002	-91.883640	 3.381796	-1.175136	-38.314470	 61.862450	 60.251420	-15.793460	-2.350444	-0.014779	 0.721068	-2.172073	 0.218796	-11.502690
-0.362571	 0.232435	 0.674696	-89.519020	 78.044650	-33.625800	 4.191551	 1.889217	 10.781590	 0.075826	-0.327428	-68.693380	 0.725704	-0.664684	-84.973790	 8.106167	-2.987013	-40.402680	-11.577960	-6.816906	-73.534010	 4.702378	-4.705935	-90.043370	 6.523827	-2.571912	-42.996450	-37.996200	-10.780760	-75.051570	-5.641814	 5.101536	-84.233620	-3.074795	 1.198914	-42.595640	-22.625810	-7.841430	-78.401510	 4.155415	-4.295749	-91.904210	 3.419888	-1.187198	-38.279120	 62.048160	 60.224170	-15.849170	-2.353953	-0.014028	 0.683290	-2.195125	 0.220961	-11.495180
-0.362487	 0.232493	 0.674624	-89.747850	 77.981790	-33.373170	 4.312997	 1.887306	 10.770500	 0.151806	-0.388592	-68.762890	 0.829906	-0.762025	-85.116060	 8.305376	-3.059978	-40.394640	-11.549480	-6.843599	-73.466660	 4.775701	-4.778599	-90.034900	 6.696301	-2.640953	-43.009880	-37.958000	-10.801840	-75.124680	-5.577542	 5.037872	-84.171070	-2.991894	 1.168767	-42.668170	-22.575270	-7.888853	-78.406010	 4.226598	-4.366450	-91.866670	 3.556108	-1.234018	-38.264840	 62.652910	 60.115320	-16.117480	-2.321696	-0.013688	 0.675482	-2.327621	 0.234272	-11.492870
-0.362502	 0.232577	 0.674476	-89.906470	 77.939480	-33.202080	 4.393373	 1.880291	 10.730040	 0.231671	-0.452776	-68.800510	 0.956334	-0.880699	-85.284480	 8.484957	-3.135863	-40.507740	-11.537980	-6.855127	-73.413570	 4.837519	-4.845553	-90.095210	 6.839210	-2.697005	-43.003840	-37.953770	-10.798710	-75.166690	-5.515284	 4.979016	-84.141180	-2.931764	 1.146228	-42.700640	-22.564540	-7.899133	-78.403370	 4.251969	-4.391948	-91.857320	 3.639569	-1.263048	-38.266260	 63.082290	 60.060790	-16.199680	-2.285512	-0.014813	 0.742576	-2.495673	 0.248366	-11.365290
-0.362661	 0.232772	 0.674284	-90.405060	 77.767040	-32.677040	 4.527221	 1.858924	 10.606830	 0.313876	-0.519321	-68.888500	 1.098880	-1.013279	-85.358400	 8.547808	-3.158968	-40.505270	-11.513660	-6.878083	-73.346550	 4.970819	-4.987413	-90.191270	 6.930902	-2.743048	-43.144030	-37.956860	-10.776950	-75.285040	-5.440140	 4.910694	-84.135820	-2.908556	 1.136006	-42.661310	-22.577480	-7.885120	-78.431850	 4.265537	-4.407426	-91.876300	 3.677838	-1.276134	-38.260710	 63.476620	 60.037750	-16.153450	-2.364385	-0.017198	 0.832874	-2.758605	 0.271467	-11.238500
